HIERARCHY
ROOT root
{
	OFFSET	0	13.1	24.9
	CHANNELS 6  Xposition Yposition Zposition Xrotation Yrotation Zrotation
	JOINT spine_1
	{
		OFFSET	0	9.99999	0
		CHANNELS 3  Xrotation Yrotation Zrotation
		JOINT spine_2
		{
			OFFSET	0	112	-10
			CHANNELS 3  Xrotation Yrotation Zrotation
			JOINT spine_3
			{
				OFFSET	0	206.5	19.3
				CHANNELS 3  Xrotation Yrotation Zrotation
				JOINT spine_4
				{
					OFFSET	0	110.4	14.6
					CHANNELS 3  Xrotation Yrotation Zrotation
					JOINT neck_1
					{
						OFFSET	0	71.8	-50.3
						CHANNELS 3  Xrotation Yrotation Zrotation
						JOINT neck_2
						{
							OFFSET	0	86.2	-25.8
							CHANNELS 3  Xrotation Yrotation Zrotation
							JOINT head_ee
							{
								OFFSET	0	179.8	-8.7
								CHANNELS 3  Xrotation Yrotation Zrotation
								End Site
								{
									OFFSET	1	0	0
								}
							}
						}
					}
					JOINT left_clavicle
					{
						OFFSET	-43.2	22.4	-70.8
						CHANNELS 3  Xrotation Yrotation Zrotation
						JOINT left_shoulder
						{
							OFFSET	-93.9	-5.79999	48.7
							CHANNELS 3  Xrotation Yrotation Zrotation
							JOINT left_elbow
							{
								OFFSET	-291.4	-30.8	15.2
								CHANNELS 3  Xrotation Yrotation Zrotation
								JOINT left_lowarm_twist
								{
									OFFSET	-110.7	-3.89999	13.6
									CHANNELS 3  Xrotation Yrotation Zrotation
									JOINT left_hand
									{
										OFFSET	-110.7	-3.89999	13.6
										CHANNELS 3  Xrotation Yrotation Zrotation
										JOINT left_ee
										{
											OFFSET	-80.8	-5.10001	12.1
											CHANNELS 3  Xrotation Yrotation Zrotation
											End Site
											{
												OFFSET	1	0	0
											}
										}
									}
								}
							}
						}
					}
					JOINT right_clavicle
					{
						OFFSET	43.2	22.4	-70.8
						CHANNELS 3  Xrotation Yrotation Zrotation
						JOINT right_shoulder
						{
							OFFSET	93.9	-5.79999	48.7
							CHANNELS 3  Xrotation Yrotation Zrotation
							JOINT right_elbow
							{
								OFFSET	291.4	-30.8	15.2
								CHANNELS 3  Xrotation Yrotation Zrotation
								JOINT right_lowarm_twist
								{
									OFFSET	110.7	-3.89999	13.6
									CHANNELS 3  Xrotation Yrotation Zrotation
									JOINT right_hand
									{
										OFFSET	110.7	-3.89999	13.6
										CHANNELS 3  Xrotation Yrotation Zrotation
										JOINT right_ee
										{
											OFFSET	80.8	-5.10001	12.1
											CHANNELS 3  Xrotation Yrotation Zrotation
											End Site
											{
												OFFSET	1	0	0
											}
										}
									}
								}
							}
						}
					}
				}
			}
		}
	}
	JOINT left_hip
	{
		OFFSET	-82.8	-127.5	0.300001
		CHANNELS 3  Xrotation Yrotation Zrotation
		JOINT left_knee
		{
			OFFSET	-28.2	-396.7	2.2
			CHANNELS 3  Xrotation Yrotation Zrotation
			JOINT left_ankle
			{
				OFFSET	-11.7	-411.3	35.4
				CHANNELS 3  Xrotation Yrotation Zrotation
				JOINT left_toes
				{
					OFFSET	0	-60	-88.6
					CHANNELS 3  Xrotation Yrotation Zrotation
					JOINT left_foot_ee
					{
						OFFSET	-22.5	-16.5	-42.2
						CHANNELS 3  Xrotation Yrotation Zrotation
						End Site
						{
							OFFSET	1	0	0
						}
					}
				}
			}
		}
	}
	JOINT right_hip
	{
		OFFSET	82.8	-127.5	0.300001
		CHANNELS 3  Xrotation Yrotation Zrotation
		JOINT right_knee
		{
			OFFSET	28.2	-396.7	2.2
			CHANNELS 3  Xrotation Yrotation Zrotation
			JOINT right_ankle
			{
				OFFSET	11.7	-411.3	35.4
				CHANNELS 3  Xrotation Yrotation Zrotation
				JOINT right_toes
				{
					OFFSET	0	-60	-88.6
					CHANNELS 3  Xrotation Yrotation Zrotation
					JOINT right_foot_ee
					{
						OFFSET	22.5	-16.5	-42.2
						CHANNELS 3  Xrotation Yrotation Zrotation
						End Site
						{
							OFFSET	1	0	0
						}
					}
				}
			}
		}
	}
}
MOTION
Frames: 9
Frame Time: 0.02
3152.9 696.657 -273.152 178.602 -57.1775 171.85 2.19483 0.607203 1.65559 2.19622 0.500639 1.69086 2.21103 0.201956 1.75179 2.20706 0.476045 1.69794 -6.29933 1.8745 4.01836 -6.25463 0.522795 4.40276 -0.0 0.0 -0.0 1.25956 13.0524 3.61865 -28.2609 -34.0066 69.209 0.380151 -10.665 0.0354831 43.9715 -0.57179 -5.45207 0.0931341 -5.19047 -1.57182 -0.0 0.0 -0.0 11.8324 25.3353 -23.072 18.5607 -16.8126 -62.1123 0.834404 22.4571 -0.165651 83.9139 4.29695 8.81482 1.06529 4.44234 -5.30118 0.0 0.0 0.0 38.7167 -1.81045 -0.836063 -67.6852 -3.08444 9.31461 23.2992 -16.8539 -3.41749 -17.096 0.0 0.0 -0.0 0.0 -0.0 12.4794 -11.1866 6.21417 -17.4324 -0.317367 -2.64604 22.3609 14.7139 3.24652 25.3454 -0.0 -0.0 0.0 0.0 0.0 
3156.9 696.594 -267.564 -179.747 -59.1599 173.082 2.21777 0.773129 2.04308 2.21986 0.641585 2.08811 2.2433 0.273711 2.16721 2.23727 0.612471 2.09683 -6.57699 0.630148 3.36532 -6.54397 -1.28544 3.50185 -0.0 0.0 -0.0 1.40839 9.70653 3.58603 -28.2528 -35.0848 70.5686 0.276222 -7.79172 0.018811 44.7739 -0.620574 -5.54242 -0.0398958 -5.77385 -2.71774 -0.0 0.0 -0.0 11.7367 22.4209 -23.1388 21.8416 -17.8113 -62.4389 0.909465 24.2523 -0.195411 84.5906 4.37757 8.84708 1.33529 5.40513 -6.72739 0.0 0.0 0.0 40.8835 -7.1975 1.644 -67.0958 -3.01292 9.25833 21.4092 -18.2599 -3.2094 -17.416 0.0 0.0 -0.0 0.0 -0.0 12.9913 -15.4524 7.24419 -16.1137 -0.321669 -2.44376 22.4673 14.0909 3.24631 25.0509 -0.0 -0.0 0.0 0.0 0.0 
3171.89 695.57 -263.258 -179.987 -60.0001 173.481 2.30883 0.880314 1.96303 2.31065 0.753644 2.01504 2.33723 0.400189 2.11378 2.33173 0.728931 2.02411 -6.96941 -0.416436 2.20797 -6.95434 -2.36958 2.12462 -0.0 0.0 -0.0 1.18602 8.87326 3.12586 -30.5042 -37.4771 71.2387 0.301223 -8.48708 0.0223507 43.3161 -0.532889 -5.37779 -0.0813009 -4.89158 -2.62101 -0.0 0.0 -0.0 12.0321 23.184 -23.7455 22.1637 -15.7759 -60.1893 0.910263 24.2711 -0.195739 85.2674 4.45856 8.87838 1.00709 3.98783 -5.09751 0.0 0.0 0.0 40.8923 -3.35471 -0.579822 -59.0177 -2.09485 8.41633 19.5501 -20.7039 -3.02415 -20.9966 0.0 0.0 -0.0 0.0 -0.0 14.1069 -19.5495 8.55705 -19.2374 -0.303933 -2.92265 25.5909 12.9008 3.60456 25.4204 -0.0 -0.0 0.0 0.0 0.0 
3180.97 693.409 -260.737 -179.871 -57.2316 173.398 2.13692 1.05801 1.87914 2.1384 0.936311 1.94263 2.17044 0.586583 2.07514 2.16557 0.90689 1.95653 -6.06568 0.101392 2.1034 -6.05224 -1.36145 2.14066 -0.0 0.0 -0.0 1.1438 11.6242 3.30116 -32.1465 -38.5432 70.175 0.349349 -9.81841 0.0300065 41.4136 -0.424821 -5.15971 -0.0748873 -4.38409 -2.36147 -0.0 0.0 -0.0 13.1565 27.3042 -25.8781 23.6815 -13.3694 -57.7025 1.05269 27.5402 -0.25799 85.1422 4.44356 8.87267 0.597652 3.0392 -2.73268 0.0 0.0 0.0 40.3943 1.36124 -3.17889 -53.042 -1.4973 7.71575 19.1977 -23.308 -3.05146 -22.3906 0.0 0.0 -0.0 0.0 -0.0 14.1195 -14.7655 8.5366 -21.9497 -0.26738 -3.33718 26.2675 12.4525 3.67502 25.057 -0.0 -0.0 0.0 0.0 0.0 
3197.22 689.392 -258.336 -179.419 -57.4418 174.319 2.04037 0.985131 1.75217 2.04166 0.871659 1.81128 2.06952 0.542131 1.93558 2.06527 0.840967 1.82573 -4.72467 -0.322772 1.40478 -4.71764 -1.65391 1.38098 -0.0 0.0 -0.0 1.04537 11.8294 3.15408 -32.3058 -39.0284 71.2613 0.369472 -10.372 0.0335337 40.9871 -0.401601 -5.11036 -0.213708 -3.15124 -2.77062 -0.0 0.0 -0.0 13.0225 27.3653 -25.5613 22.6826 -10.0286 -57.1495 1.27748 32.3252 -0.370252 83.8986 4.29513 8.81408 0.538452 -2.04484 -4.43842 0.0 0.0 0.0 41.199 1.8428 -4.10854 -47.7029 -1.02805 7.04088 18.4058 -24.6537 -2.98004 -24.4073 0.0 0.0 -0.0 0.0 -0.0 14.4425 -15.8985 9.26371 -23.8383 -0.230358 -3.62461 28.2266 12.4554 3.90218 25.1503 -0.0 -0.0 0.0 0.0 0.0 
3211.47 687.185 -255.55 -179.254 -57.0499 174.788 1.97064 0.966396 1.58166 1.97162 0.863807 1.63993 1.99666 0.562037 1.76622 1.99327 0.833888 1.65534 -3.85261 -0.344645 1.2868 -3.84626 -1.61752 1.27266 -0.0 0.0 -0.0 1.21823 11.196 3.38906 -32.3594 -41.2483 72.7058 0.310376 -8.74102 0.0237215 39.6115 -0.329212 -4.95 -0.150941 -1.02216 -1.44195 -0.0 0.0 -0.0 13.0032 27.589 -25.4882 23.2662 -9.14402 -57.391 1.46517 35.97 -0.475661 84.2163 4.33293 8.82936 0.670265 -5.79312 -6.82255 0.0 0.0 0.0 42.0696 0.586576 -4.50843 -44.205 -0.755722 6.57665 17.5019 -24.2258 -2.83424 -24.7518 0.0 0.0 -0.0 0.0 -0.0 14.0081 -15.8406 9.37488 -24.1757 -0.222746 -3.67584 30.9561 6.85484 4.09186 24.5066 -0.0 -0.0 0.0 0.0 0.0 
3222.95 683.358 -250.002 -177.525 -54.7093 176.702 2.095 1.1273 1.48226 2.09563 1.03071 1.55097 2.12387 0.74584 1.70631 2.12122 1.00593 1.56715 -3.55849 0.266415 1.6836 -3.54976 -0.814088 1.78173 -0.0 0.0 -0.0 0.817814 15.5631 3.12711 -33.5823 -40.4015 70.8385 0.352797 -9.91341 0.0305973 39.3278 -0.314762 -4.91672 -0.0672076 -3.56834 -1.96242 -0.0 0.0 -0.0 13.6058 27.6815 -26.8679 22.4535 -3.35767 -56.1552 1.45872 35.8499 -0.471879 82.757 4.16002 8.75748 0.864292 -10.7759 -10.0183 0.0 0.0 0.0 43.5126 2.93684 -7.26222 -40.9011 -0.525087 6.12395 17.6211 -23.5127 -2.83044 -25.2486 0.0 0.0 -0.0 0.0 -0.0 14.6648 -12.5276 8.88095 -26.3418 -0.166709 -4.00351 29.8517 10.1345 4.03309 25.01 -0.0 -0.0 0.0 0.0 0.0 
3240.81 681.773 -243.962 -178.329 -58.0387 175.815 2.03522 0.992871 1.63837 2.03627 0.886621 1.69821 2.06285 0.576381 1.82693 2.05922 0.857636 1.71302 -3.30789 -0.524964 0.808423 -3.30452 -1.58244 0.759847 -0.0 0.0 -0.0 0.899355 12.1041 2.93479 -31.8758 -40.5711 72.888 0.263789 -7.44501 0.0171626 40.372 -0.36875 -5.03886 -0.0589015 0.625895 -0.129085 -0.0 0.0 -0.0 12.4602 26.8047 -24.3392 22.946 -9.07241 -57.9259 1.59691 38.3433 -0.555249 84.9757 4.42361 8.86501 0.6108 -9.40117 -7.84841 0.0 0.0 0.0 43.8471 0.680807 -5.08133 -38.9731 -0.402732 5.854 18.6393 -23.5041 -2.97764 -24.9499 0.0 0.0 -0.0 0.0 -0.0 12.4171 -15.696 9.72537 -24.993 -0.20306 -3.79971 32.1656 5.36263 4.19536 24.4503 -0.0 -0.0 0.0 0.0 0.0 
3253.16 679.134 -240.235 -176.633 -53.4663 177.949 2.33344 0.893691 1.34046 2.33408 0.806592 1.3946 2.35386 0.558231 1.51123 2.35155 0.789872 1.40413 -2.90928 0.696248 2.2152 -2.89507 -0.465639 2.40669 -0.0 0.0 -0.0 0.764978 16.6695 3.14759 -32.1856 -38.6805 71.5707 0.283993 -8.0081 0.0198789 40.184 -0.358866 -5.01694 0.337842 1.06285 2.69779 -0.0 0.0 -0.0 13.1796 27.3008 -25.9319 20.4192 -1.49316 -57.8293 1.62136 38.7676 -0.570489 82.3499 4.11211 8.73664 0.160409 -13.9204 -6.72237 0.0 0.0 0.0 42.6213 -0.372576 -7.75029 -33.8845 -0.124215 5.12366 24.1472 -19.2832 -3.59387 -22.068 0.0 0.0 -0.0 0.0 -0.0 12.3645 -7.75641 7.58161 -25.9701 -0.177209 -3.94742 32.4889 5.01502 4.22362 23.3085 -0.0 -0.0 0.0 0.0 0.0 
